<?xml version="1.0" standalone="no"?>
<!DOCTYPE svg PUBLIC "-//W3C//DTD SVG 20010904//EN"
 "http://www.w3.org/TR/2001/REC-SVG-20010904/DTD/svg10.dtd">
<svg version="1.0" xmlns="http://www.w3.org/2000/svg"
 width="512.000000pt" height="512.000000pt" viewBox="0 0 512.000000 512.000000"
 preserveAspectRatio="xMidYMid meet">

<g transform="translate(0.000000,512.000000) scale(0.100000,-0.100000)"
fill="#000000" stroke="none">
<path d="M1695 5085 c-25 -24 -25 -26 -25 -208 0 -179 1 -184 23 -205 31 -29
77 -29 105 1 21 22 22 32 22 206 0 180 0 182 -25 206 -13 14 -36 25 -50 25
-14 0 -37 -11 -50 -25z"/>
<path d="M3789 5087 c-53 -35 -59 -57 -59 -208 0 -135 0 -136 -25 -147 -23
-11 -29 -6 -107 87 -46 54 -95 106 -110 115 -34 21 -97 20 -128 -1 -69 -47
-217 -179 -232 -206 -36 -64 -24 -96 81 -221 45 -52 81 -101 81 -109 0 -37
-25 -39 -162 -16 -124 20 -136 21 -170 6 -20 -8 -44 -27 -53 -40 -22 -34 -69
-298 -61 -342 11 -59 59 -90 172 -110 176 -31 169 -28 172 -57 3 -23 -8 -32
-113 -93 -187 -108 -193 -133 -78 -332 68 -118 81 -135 119 -154 56 -26 79
-20 219 61 106 61 108 62 127 43 18 -19 18 -21 -21 -129 -52 -142 -56 -162
-38 -206 20 -47 37 -58 186 -112 132 -49 175 -55 220 -32 38 20 51 42 101 179
40 112 44 118 69 115 23 -3 29 -14 63 -108 49 -136 63 -163 98 -183 44 -26 89
-21 227 29 210 75 225 107 150 309 -44 117 -45 120 -27 139 19 19 21 18 137
-49 131 -76 180 -86 230 -49 14 11 59 76 99 144 62 106 73 132 74 172 0 64
-26 92 -160 169 -102 59 -109 65 -103 88 3 14 6 26 7 27 1 0 57 10 125 23 140
25 174 39 196 81 20 39 19 79 -6 218 -24 138 -33 159 -78 189 -41 28 -56 28
-195 3 -135 -25 -133 -25 -146 1 -10 17 -4 29 47 90 126 152 143 191 109 257
-14 27 -151 149 -221 196 -39 27 -85 33 -128 17 -14 -5 -65 -57 -113 -114 -74
-88 -92 -104 -109 -97 -18 7 -20 18 -25 146 -8 220 -23 234 -258 234 -139 0
-151 -2 -183 -23z m294 -682 c121 -32 213 -103 270 -212 89 -169 67 -356 -56
-490 -96 -104 -200 -147 -343 -141 -79 3 -100 8 -160 38 -89 43 -161 116 -205
205 -33 67 -34 74 -34 180 0 108 1 113 38 187 94 190 292 285 490 233z"/>
<path d="M3913 4310 c-94 -20 -187 -90 -231 -174 -24 -45 -27 -62 -27 -146 0
-80 4 -103 24 -144 31 -64 88 -118 159 -153 49 -24 69 -28 142 -28 103 1 161
25 232 97 84 86 113 223 72 340 -26 73 -120 169 -189 191 -65 22 -130 28 -182
17z"/>
<path d="M471 4584 c-40 -51 -32 -68 112 -211 112 -112 138 -133 163 -133 39
0 74 36 74 76 0 24 -22 52 -133 162 -114 114 -137 132 -164 132 -22 0 -38 -8
-52 -26z"/>
<path d="M1617 4480 c-191 -22 -401 -105 -553 -218 -350 -261 -523 -678 -459
-1105 37 -249 137 -443 335 -652 118 -124 148 -168 180 -270 21 -63 23 -98 30
-360 7 -323 13 -357 86 -477 152 -250 489 -358 742 -238 85 40 105 88 57 135
-29 30 -58 31 -118 5 -155 -69 -358 -29 -482 95 -102 103 -140 228 -133 445
l3 95 444 3 444 2 -5 -157 c-5 -158 -10 -182 -58 -299 -19 -44 -6 -82 32 -98
65 -28 101 6 149 139 20 54 23 87 29 355 9 398 18 426 209 625 149 154 232
287 291 465 137 406 28 867 -276 1174 -147 149 -228 187 -273 130 -38 -48 -28
-80 42 -130 203 -146 343 -367 398 -629 8 -34 13 -119 12 -195 -2 -284 -93
-493 -315 -723 l-103 -107 -580 0 -579 0 -103 106 c-114 118 -197 234 -243
342 -128 302 -93 662 92 945 135 205 339 355 573 419 68 18 107 22 260 22 158
1 189 -2 257 -21 78 -23 99 -22 131 5 23 20 22 77 -2 101 -52 52 -337 91 -514
71z m623 -2142 c0 -2 -9 -31 -20 -64 -10 -34 -22 -89 -26 -123 l-7 -61 -443 0
-444 0 0 28 c0 26 -32 169 -45 205 -7 16 21 17 489 17 273 0 496 -1 496 -2z"/>
<path d="M45 3389 c-50 -28 -60 -82 -22 -117 22 -21 32 -22 210 -22 174 0 188
1 207 20 27 27 26 81 -1 106 -19 17 -40 19 -198 22 -117 1 -183 -2 -196 -9z"/>
<path d="M3590 2601 c-65 -34 -75 -65 -78 -252 l-4 -166 -36 -11 c-20 -6 -39
-8 -43 -4 -3 4 -49 59 -103 123 -102 122 -124 139 -184 139 -47 0 -72 -16
-207 -129 -126 -107 -145 -131 -145 -186 0 -50 15 -74 128 -208 l91 -108 -21
-34 c-11 -19 -21 -35 -22 -35 -1 0 -66 11 -144 25 -172 30 -198 31 -239 5 -46
-28 -57 -57 -87 -222 -31 -175 -32 -203 -6 -245 28 -46 60 -59 226 -88 82 -15
151 -28 152 -30 2 -2 6 -21 9 -42 l5 -38 -138 -80 c-76 -44 -147 -93 -158
-108 -14 -19 -21 -43 -21 -75 0 -41 12 -66 83 -188 98 -168 114 -185 181 -192
47 -4 56 -1 191 77 78 44 147 78 154 74 6 -3 21 -15 32 -25 l21 -19 -53 -146
c-58 -158 -63 -187 -38 -238 21 -45 36 -54 202 -114 172 -63 196 -68 242 -44
48 25 68 59 124 216 l49 137 41 0 41 0 54 -150 c56 -158 77 -191 137 -210 42
-14 51 -12 229 52 142 51 176 71 201 120 22 42 17 73 -40 228 l-54 145 26 28
c14 15 29 27 32 27 4 0 69 -36 146 -80 215 -124 240 -117 366 100 100 172 107
197 76 258 -21 43 -34 54 -163 128 l-140 80 3 35 c2 19 7 37 10 41 4 4 75 19
157 33 83 15 163 34 179 43 16 9 38 35 50 57 l20 39 -28 166 c-31 184 -46 225
-96 252 -45 23 -68 23 -230 -7 -74 -14 -138 -25 -142 -25 -3 0 -16 16 -28 35
l-21 34 105 125 c165 196 162 216 -52 394 -125 104 -138 112 -189 112 -57 0
-88 -25 -193 -153 -100 -121 -96 -119 -157 -96 -23 8 -23 11 -23 175 0 150 -2
170 -20 199 -34 54 -77 65 -263 65 -139 0 -167 -3 -197 -19z m-13 -804 c15 0
55 7 88 16 32 9 91 17 130 17 387 0 635 -401 464 -749 -188 -381 -725 -390
-922 -13 -93 177 -83 375 28 536 54 80 61 101 41 131 -15 23 -15 25 17 48 80
59 79 59 104 35 12 -11 35 -21 50 -21z"/>
<path d="M3659 1717 c-303 -105 -396 -471 -180 -700 174 -184 476 -181 637 6
151 178 144 424 -18 589 -82 85 -165 121 -283 125 -74 3 -102 -1 -156 -20z"/>
<path d="M573 2267 c-115 -115 -133 -137 -133 -165 0 -42 30 -72 73 -72 29 0
49 16 165 133 144 146 154 166 107 212 -47 48 -67 38 -212 -108z"/>
</g>
</svg>
